<?xml version="1.0" encoding="iso-8859-1"?>
<!-- Generator: Adobe Illustrator 19.0.0, SVG Export Plug-In . SVG Version: 6.00 Build 0)  -->
<svg version="1.1" id="Layer_1" xmlns="http://www.w3.org/2000/svg" xmlns:xlink="http://www.w3.org/1999/xlink" x="0px" y="0px"
	 viewBox="0 0 512 512" style="enable-background:new 0 0 512 512;" xml:space="preserve">
<g>
	<circle style="fill:#FDC00F;" cx="256" cy="256" r="256"/>
	<path style="fill:#F29A00;" d="M512,256c0-9.938-0.625-19.732-1.731-29.373l-0.333-0.333
		c-1.039-1.157-108.088-108.211-109.235-109.23c-3.149-3.451-6.574-6.124-9.866-8.166c-4.393-2.739-8.581-4.321-12.027-5.519
		c-3.471-1.162-6.303-1.69-8.218-2.043c-1.93-0.328-2.959-0.502-2.959-0.502c-3.855-0.65-7.506,1.946-8.156,5.801
		c-0.538,3.174,1.188,6.108,3.948,7.444c0.686,1.398,33.08,33.69,33.812,34.319c-0.056,0.65-0.108,1.29-0.164,1.946
		c-0.276,3.297-0.558,6.666-0.84,10.086c-1.142,13.701-2.36,28.314-3.584,42.926c-1.172,14.612-2.54,29.22-3.789,42.916
		c-1.27,13.507-2.314,26.112-3.451,36.956h-54.641c-0.666-0.86-177.546-177.761-178.944-178.447c-1.336-2.755-4.27-4.48-7.444-3.948
		c0,0-1.029,0.174-2.959,0.502c-1.92,0.358-4.751,0.881-8.218,2.043c-3.446,1.198-7.634,2.78-12.027,5.519
		c-4.383,2.714-8.996,6.543-12.877,11.837c-3.835,5.402-6.84,11.827-7.726,19.901l-0.189,2.371l-0.046,0.599l-0.026,0.297
		l-0.005,1.009l0.015,1.208c0.015,1.618,0.036,3.251,0.051,4.905c0.036,3.308,0.072,6.687,0.113,10.122
		c0.148,13.747,0.312,28.411,0.471,43.069c0.21,14.659,0.22,29.327,0.261,43.08c0.01,13.752,0.159,26.583,0.036,37.591
		c-0.026,4.214-0.051,8.151-0.072,11.771c-0.522,1.72-0.886,3.507-0.886,5.391v61.199c0,5.996,2.888,11.295,7.291,14.751
		c0.942,1.198,132.854,132.89,133.53,133.53C246.047,511.821,250.998,512,256,512C397.384,512,512,397.384,512,256z"/>
	<path style="fill:#D7ECED;" d="M410.977,321.577c0,0-0.087-14.674-0.22-36.685c-0.123-11.008,0.031-23.839,0.036-37.591
		c0.041-13.752,0.056-28.421,0.261-43.08c0.159-14.664,0.323-29.327,0.471-43.069c0.036-3.436,0.077-6.815,0.113-10.122
		c0.02-1.654,0.036-3.292,0.051-4.905l0.015-1.208l-0.005-1.009l-0.026-0.297l-0.046-0.599l-0.189-2.371
		c-0.881-8.074-3.891-14.5-7.726-19.901c-3.886-5.294-8.499-9.124-12.877-11.837c-4.393-2.739-8.581-4.321-12.027-5.519
		c-3.471-1.162-6.303-1.69-8.218-2.043c-1.93-0.328-2.959-0.502-2.959-0.502c-3.855-0.65-7.506,1.946-8.156,5.801
		c-0.65,3.855,1.946,7.506,5.801,8.156l0.625,0.077l0.451,0.036c0,0,0.788,0.061,2.263,0.174c1.475,0.113,3.635,0.451,6.292,1.172
		c2.652,0.712,5.847,1.843,9.037,3.86c3.164,1.992,6.584,4.603,9.052,8.32c1.193,1.859,2.412,3.83,3.113,6.088
		c0.471,1.085,0.635,2.289,0.957,3.456c0.2,1.208,0.317,2.012,0.451,3.405l0.061,2.376l0.015,0.599v0.302c0-0.292,0,0.758,0-0.63
		l-0.005,0.077l-0.01,0.148l-0.097,1.203c-0.133,1.613-0.271,3.241-0.41,4.89c-0.276,3.297-0.558,6.666-0.84,10.086
		c-1.142,13.701-2.36,28.314-3.584,42.926c-1.172,14.612-2.54,29.22-3.789,42.916c-1.285,13.691-2.34,26.481-3.497,37.427
		c-2.202,21.903-3.671,36.5-3.671,36.5c-0.809,8.069,5.074,15.268,13.138,16.077c8.069,0.809,15.268-5.074,16.077-13.138
		C410.957,322.616,410.982,322.084,410.977,321.577z"/>
	<path style="fill:#FFFFFF;" d="M101.033,321.577c0,0,0.087-14.674,0.22-36.685c0.123-11.008-0.031-23.839-0.036-37.591
		c-0.041-13.752-0.056-28.421-0.261-43.08c-0.159-14.664-0.323-29.327-0.471-43.069c-0.036-3.436-0.077-6.815-0.113-10.122
		c-0.02-1.654-0.036-3.292-0.051-4.905l-0.015-1.208l0.005-1.009l0.026-0.297l0.046-0.599l0.189-2.371
		c0.881-8.074,3.891-14.5,7.726-19.901c3.886-5.294,8.499-9.124,12.877-11.837c4.393-2.739,8.581-4.321,12.027-5.519
		c3.471-1.162,6.303-1.69,8.218-2.043c1.93-0.328,2.959-0.502,2.959-0.502c3.855-0.65,7.506,1.946,8.156,5.801
		c0.65,3.855-1.946,7.506-5.801,8.156l-0.625,0.077l-0.451,0.036c0,0-0.788,0.061-2.263,0.174c-1.475,0.113-3.635,0.451-6.292,1.172
		c-2.652,0.712-5.847,1.843-9.037,3.86c-3.164,1.992-6.584,4.603-9.052,8.32c-1.193,1.859-2.412,3.83-3.113,6.088
		c-0.471,1.085-0.635,2.289-0.957,3.456c-0.2,1.208-0.317,2.012-0.451,3.405l0.292,2.376l0.343,0.599v0.302c0-0.292,0,0.758,0-0.63
		v0.077l-0.343,0.148l-0.077,1.203c0.133,1.613,0.179,3.241,0.317,4.89c0.276,3.297,0.512,6.666,0.799,10.086
		c1.142,13.701,2.34,28.314,3.558,42.926c1.172,14.612,2.529,29.22,3.779,42.916c1.285,13.691,2.335,26.481,3.492,37.427
		c2.202,21.903,3.666,36.5,3.666,36.5c0.809,8.069-5.074,15.268-13.143,16.077c-8.069,0.809-15.268-5.074-16.077-13.138
		C101.053,322.616,101.028,322.084,101.033,321.577z"/>
	<path style="fill:#FFFFFF;" d="M236.82,363.254c0,10.358-8.474,18.831-18.831,18.831h-98.862c-10.358,0-18.831-8.474-18.831-18.831
		v-56.489c0-10.358,8.474-18.831,18.831-18.831h98.862c10.358,0,18.831,8.474,18.831,18.831V363.254z"/>
	<path style="fill:#FFFFFF;" d="M411.003,363.254c0,10.358-8.474,18.831-18.831,18.831h-98.862
		c-10.358,0-18.831-8.474-18.831-18.831v-56.489c0-10.358,8.474-18.831,18.831-18.831h98.862c10.358,0,18.831,8.474,18.831,18.831
		V363.254z"/>
	<path style="fill:#FFFFFF;" d="M392.172,287.933h-89.446h-9.416h-75.32h-14.121h-84.736c-10.358,0-18.831,8.474-18.831,18.831
		v56.494c0,10.358,8.474,18.831,18.831,18.831h98.862c10.358,0,18.831-8.474,18.831-18.831v-47.078h37.663v47.078
		c0,10.358,8.474,18.831,18.831,18.831h98.862c10.358,0,18.831-8.474,18.831-18.831v-56.494
		C411.003,296.407,402.529,287.933,392.172,287.933z"/>
	<path style="fill:#FFFFFF;" d="M392.172,283.223h-89.446h-9.416h-75.32h-14.121h-84.736c-10.358,0-18.831,8.474-18.831,18.831
		v56.494c0,10.358,8.474,18.831,18.831,18.831h98.862c10.358,0,18.831-8.474,18.831-18.831V311.47h37.663v47.078
		c0,10.358,8.474,18.831,18.831,18.831h98.862c10.358,0,18.831-8.474,18.831-18.831v-56.494
		C411.003,291.697,402.529,283.223,392.172,283.223z"/>
	<path style="fill:#FC611F;" d="M119.127,367.964c-2.55,0-4.705-2.156-4.705-4.705v-56.494c0-2.55,2.156-4.705,4.705-4.705h98.862
		c2.55,0,4.705,2.156,4.705,4.705v56.494c0,2.55-2.156,4.705-4.705,4.705L119.127,367.964L119.127,367.964z"/>
	<path style="fill:#D7ECED;" d="M392.172,287.933h-136.52v28.247h18.831v47.078c0,10.358,8.474,18.831,18.831,18.831h98.862
		c10.358,0,18.831-8.474,18.831-18.831v-56.494C411.003,296.407,402.529,287.933,392.172,287.933z"/>
	<path style="fill:#15B0BF;" d="M293.309,367.964c-2.55,0-4.705-2.156-4.705-4.705v-56.494c0-2.55,2.156-4.705,4.705-4.705h98.862
		c2.55,0,4.705,2.156,4.705,4.705v56.494c0,2.55-2.156,4.705-4.705,4.705L293.309,367.964L293.309,367.964z"/>
	<path style="fill:#E64500;" d="M217.989,302.054h-41.4l-16.855,65.91h58.255c2.55,0,4.705-2.156,4.705-4.705v-56.494
		C222.694,304.21,220.539,302.054,217.989,302.054z"/>
	<path style="fill:#129BA8;" d="M392.172,302.054h-41.4l-16.855,65.91h58.255c2.55,0,4.705-2.156,4.705-4.705v-56.494
		C396.882,304.21,394.726,302.054,392.172,302.054z"/>
</g>
<g>
</g>
<g>
</g>
<g>
</g>
<g>
</g>
<g>
</g>
<g>
</g>
<g>
</g>
<g>
</g>
<g>
</g>
<g>
</g>
<g>
</g>
<g>
</g>
<g>
</g>
<g>
</g>
<g>
</g>
</svg>
